<?xml version="1.0" standalone="no"?>
<!DOCTYPE svg PUBLIC "-//W3C//DTD SVG 20010904//EN"
 "http://www.w3.org/TR/2001/REC-SVG-20010904/DTD/svg10.dtd">
<svg version="1.0" xmlns="http://www.w3.org/2000/svg"
 width="1024.000000pt" height="1024.000000pt" viewBox="0 0 1024.000000 1024.000000"
 preserveAspectRatio="xMidYMid meet">
<metadata>
Created by potrace 1.11, written by Peter Selinger 2001-2013
</metadata>
<g transform="translate(0.000000,1024.000000) scale(0.100000,-0.100000)"
fill="#000000" stroke="none">
<path d="M2789 9596 c-2 -2 -65 -7 -139 -10 -74 -4 -144 -9 -155 -11 -11 -2
-42 -7 -70 -10 -70 -7 -126 -14 -155 -20 -47 -10 -75 -15 -105 -20 -16 -3 -38
-8 -47 -11 -9 -3 -25 -7 -35 -9 -109 -25 -231 -69 -363 -132 -271 -130 -584
-414 -762 -693 -68 -106 -171 -325 -184 -390 0 -3 -4 -12 -7 -20 -12 -27 -45
-164 -61 -245 -15 -79 -18 -100 -31 -200 -3 -27 -8 -63 -10 -80 -2 -16 -8 -86
-12 -155 -10 -162 -10 -4800 0 -4945 8 -119 14 -183 22 -230 2 -16 7 -52 11
-80 5 -44 23 -141 38 -214 26 -121 109 -343 168 -451 142 -258 354 -492 608
-671 86 -62 206 -128 311 -172 81 -35 254 -92 305 -101 13 -3 59 -11 101 -20
73 -14 166 -28 273 -40 153 -18 505 -21 2615 -21 2040 0 2536 4 2637 20 13 2
50 6 83 10 259 27 526 103 725 208 174 92 309 194 471 357 276 277 445 599
514 975 29 163 38 240 52 455 10 157 11 4742 1 4905 -42 666 -197 1055 -572
1431 -50 50 -118 113 -151 140 -33 27 -62 52 -65 55 -3 3 -43 30 -90 61 -204
135 -464 237 -698 274 -20 3 -39 7 -42 9 -3 2 -35 7 -70 10 -36 4 -67 8 -70
10 -3 2 -46 6 -95 10 -50 4 -106 9 -125 12 -38 7 -4814 15 -4821 9z"/>
</g>
</svg>
